<?xml version="1.0" encoding="UTF-8"?>
<svg width="301px" height="201px" viewBox="0 0 301 201" version="1.1" xmlns="http://www.w3.org/2000/svg" xmlns:xlink="http://www.w3.org/1999/xlink">
    <title>Email Icon</title>
    <desc>HiJulianCode Email.</desc>
    <g id="Page-1" stroke="none" stroke-width="1" fill="none" fill-rule="evenodd">
        <g id="email-svg" fill="#FFFFFF" fill-rule="nonzero">
            <path d="M271.262,0.041 L29.15,0.041 C13.153,0.041 0,13.01 0,29.191 L0,171.221 C0,187.231 13.022,200.371 29.15,200.371 L271.262,200.371 C287.399,200.371 300.412,187.219 300.412,171.221 L300.412,29.191 C300.412,12.995 287.246,0.041 271.262,0.041 Z M265.583,15.94 L150.206,90.731 L34.831,15.94 L265.583,15.94 Z M15.9,29.191 C15.9,27.18 16.355,25.229 17.203,23.463 L89.376,70.248 L15.9,168.513 L15.9,29.191 Z M271.262,184.471 L29.15,184.471 C27.502,184.471 25.929,184.154 24.471,183.602 L102.748,78.916 L145.882,106.877 C148.514,108.583 151.901,108.581 154.532,106.877 L197.665,78.916 L275.942,183.602 C274.484,184.155 272.911,184.471 271.262,184.471 Z M284.512,168.513 L211.036,70.248 L283.209,23.463 C284.057,25.229 284.512,27.18 284.512,29.191 L284.512,168.513 Z"></path>
        </g>
    </g>
</svg>
