<?xml version="1.0" encoding="UTF-8"?>
<svg width="33px" height="32px" viewBox="0 0 33 32" version="1.1" xmlns="http://www.w3.org/2000/svg" xmlns:xlink="http://www.w3.org/1999/xlink">
    <title>Github Icon</title>
    <desc>HiJulianCode Github.</desc>
    <g id="Welcome" stroke="none" stroke-width="1" fill="none" fill-rule="evenodd">
        <g id="Desktop-HD" transform="translate(-666.000000, -2207.000000)" fill="#F0EDED" fill-rule="nonzero">
            <g id="Footer" transform="translate(0.000000, 2198.000000)">
                <g id="Social-Networks" transform="translate(604.000000, 9.000000)">
                    <path d="M78.4041758,0 C69.3423642,0 62,7.34236419 62,16.4041758 C62,23.6504211 66.6991129,29.8019871 73.2191316,31.9699875 C74.0414771,32.1195048 74.3405115,31.6175534 74.3405115,31.1796822 C74.3405115,30.7898698 74.3244915,29.7592678 74.3191519,28.3922532 C69.7535362,29.3801359 68.7923541,26.192214 68.7923541,26.192214 C68.0447679,24.2965502 66.9714482,23.7892592 66.9714482,23.7892592 C65.4816154,22.7746774 67.0835857,22.796037 67.0835857,22.796037 C68.7282752,22.9135155 69.5933399,24.4834457 69.5933399,24.4834457 C71.0564721,26.9931998 73.4327277,26.2669733 74.3672107,25.8504603 C74.5167279,24.7878211 74.94392,24.0669341 75.4084917,23.655762 C71.7666786,23.2445886 67.9379699,21.8348548 67.9379699,15.5497917 C67.9379699,13.7555849 68.578758,12.2924527 69.6253786,11.1443737 C69.4598413,10.7332017 68.8938125,9.06181163 69.7855763,6.80303454 C69.7855763,6.80303454 71.1632701,6.36516197 74.2977923,8.48510232 C75.6060677,8.12198906 77.010462,7.94043311 78.4041758,7.93509355 C79.7978896,7.94043311 81.2022839,8.12198906 82.5105593,8.48510232 C85.6450816,6.36516197 87.0174358,6.80303454 87.0174358,6.80303454 C87.9145391,9.06181163 87.3538499,10.7332017 87.182973,11.1443737 C88.2349332,12.2924527 88.8650422,13.7555849 88.8650422,15.5497917 C88.8650422,21.8508748 85.0309926,23.2339095 81.3785003,23.6450816 C81.9658901,24.1470329 82.4891997,25.1509343 82.4891997,26.6781453 C82.4891997,28.872845 82.4731811,30.6403525 82.4731811,31.1796822 C82.4731811,31.6175534 82.7668746,32.1301839 83.5998991,31.9699875 C90.1145783,29.7966475 94.8083516,23.6504211 94.8083516,16.4041758 C94.8083516,7.34236419 87.4659875,0 78.4041758,0 Z" id="github-logo-icon"></path>
                </g>
            </g>
        </g>
    </g>
</svg>
