<?xml version="1.0" encoding="UTF-8"?>
<svg width="30px" height="32px" viewBox="0 0 30 32" version="1.1" xmlns="http://www.w3.org/2000/svg" xmlns:xlink="http://www.w3.org/1999/xlink">
    <title>HackerRank Icon</title>
    <desc>HiJulianCode HackerRank.</desc>
    <g id="Welcome" stroke="none" stroke-width="1" fill="none" fill-rule="evenodd">
        <g id="Desktop-HD" transform="translate(-604.000000, -2207.000000)" fill="#F0EDED" fill-rule="nonzero">
            <g id="Footer" transform="translate(0.000000, 2198.000000)">
                <g id="Social-Networks" transform="translate(604.000000, 9.000000)">
                    <path d="M14.7671925,0 C12.5850386,0 1.88984615,6.1340384 0.810461538,8.00480763 C-0.270153846,9.87680738 -0.270153846,22.1329809 0.810461538,23.9975963 C1.89476923,25.8671348 12.5899617,32 14.7671925,32 C16.9382694,32 27.6335199,25.8707114 28.7215199,24.0024037 C29.8132122,22.1291729 29.8132122,9.86344246 28.7215199,7.99759618 L28.7215199,7.99519237 C27.6249033,6.12811532 16.9308848,0 14.7671925,0 Z M14.7647888,2.4759616 C16.8534042,2.91042302 25.129846,7.65140382 26.5796922,9.24278892 C27.2443076,11.2624812 27.2430768,20.7314228 26.5796922,22.7548074 C25.1396922,24.3437305 16.8558657,29.0908074 14.7647888,29.5240382 C12.6749426,29.0932689 4.39715385,24.3485957 2.95469231,22.7572111 C2.29623077,20.7289034 2.29623077,11.2686351 2.95469231,9.24278892 C4.39346154,7.65140382 12.6737119,2.90673071 14.7647888,2.4759616 Z M11.0772885,7.38461538 L8.61575003,9.84615385 L9.84651926,9.84615385 L9.84651926,22.1538462 L12.3080577,22.1538462 L12.3080577,17.2307692 L17.2311346,17.2307692 L17.2311346,22.1538462 L16.0003654,22.1538462 L18.4619039,24.6153846 L20.9234423,22.1538462 L19.6926731,22.1538462 L19.6926731,11.0769231 L17.2311346,11.0769231 L17.2311346,14.7692308 L12.3080577,14.7692308 L12.3080577,9.84615385 L13.538827,9.84615385 L11.0772885,7.38461538 Z" id="hackerrank-logo-icon"></path>
                </g>
            </g>
        </g>
    </g>
</svg>
