<?xml version="1.0" encoding="UTF-8"?>
<svg width="32px" height="32px" viewBox="0 0 32 32" version="1.1" xmlns="http://www.w3.org/2000/svg" xmlns:xlink="http://www.w3.org/1999/xlink">
    <!-- Generator: Sketch 53.2 (72643) - https://sketchapp.com -->
    <title>linkedin-logo-icon</title>
    <desc>Created with Sketch.</desc>
    <g id="Welcome" stroke="none" stroke-width="1" fill="none" fill-rule="evenodd">
        <g id="Desktop-HD" transform="translate(-803.000000, -2207.000000)" fill="#F0EDED" fill-rule="nonzero">
            <g id="Footer" transform="translate(0.000000, 2198.000000)">
                <g id="Social-Networks" transform="translate(604.000000, 9.000000)">
                    <path d="M227.190476,0 L202.809524,0 C200.706667,0 199,1.70666667 199,3.80952381 L199,28.1904762 C199,30.2933333 200.706667,32 202.809524,32 L227.190476,32 C229.293333,32 231,30.2933333 231,28.1904762 L231,3.80952381 C231,1.70666667 229.293333,0 227.190476,0 Z M208.904762,12.1904762 L208.904762,26.6666667 L204.333333,26.6666667 L204.333333,12.1904762 L208.904762,12.1904762 Z M204.333333,7.97714286 C204.333333,6.91047619 205.247619,6.0952381 206.619048,6.0952381 C207.990476,6.0952381 208.851429,6.91047619 208.904762,7.97714286 C208.904762,9.04380952 208.051429,9.9047619 206.619048,9.9047619 C205.247619,9.9047619 204.333333,9.04380952 204.333333,7.97714286 Z M225.666667,26.6666667 L221.095238,26.6666667 C221.095238,26.6666667 221.095238,19.6114286 221.095238,19.047619 C221.095238,17.5238095 220.333333,16 218.428571,15.9695238 L218.367619,15.9695238 C216.52381,15.9695238 215.761905,17.5390476 215.761905,19.047619 C215.761905,19.7409524 215.761905,26.6666667 215.761905,26.6666667 L211.190476,26.6666667 L211.190476,12.1904762 L215.761905,12.1904762 L215.761905,14.1409524 C215.761905,14.1409524 217.232381,12.1904762 220.188571,12.1904762 C223.213333,12.1904762 225.666667,14.2704762 225.666667,18.4838095 L225.666667,26.6666667 Z" id="linkedin-logo-icon"></path>
                </g>
            </g>
        </g>
    </g>
</svg>