<?xml version="1.0" encoding="UTF-8"?>
<svg width="39px" height="32px" viewBox="0 0 39 32" version="1.1" xmlns="http://www.w3.org/2000/svg" xmlns:xlink="http://www.w3.org/1999/xlink">
    <!-- Generator: Sketch 53.2 (72643) - https://sketchapp.com -->
    <title>twitter-logo-icon</title>
    <desc>Created with Sketch.</desc>
    <g id="Welcome" stroke="none" stroke-width="1" fill="none" fill-rule="evenodd">
        <g id="Desktop-HD" transform="translate(-731.000000, -2207.000000)" fill="#F0EDED" fill-rule="nonzero">
            <g id="Footer" transform="translate(0.000000, 2198.000000)">
                <g id="Social-Networks" transform="translate(604.000000, 9.000000)">
                    <path d="M153.693261,0 C149.029133,0 145.236293,3.79284063 145.236293,8.45696877 C145.236293,8.73724296 145.306361,9.01142461 145.333779,9.28560548 C139.566834,8.73419669 134.467062,5.95582655 131.003239,1.70601676 C130.841777,1.50190384 130.591967,1.39223134 130.329972,1.41051048 C130.071023,1.42878884 129.839492,1.57806589 129.71154,1.80350343 C128.983436,3.05559806 128.566072,4.49657273 128.566072,6.04417365 C128.566072,7.91774582 129.236293,9.63290214 130.272089,11.0403656 C130.071023,10.9520185 129.851678,10.9032751 129.662797,10.7966489 C129.422126,10.668698 129.132714,10.6747906 128.898136,10.814928 C128.663559,10.9550647 128.520375,11.207921 128.517329,11.4790556 L128.517329,11.5765423 C128.517329,14.4493528 130.004,16.9444025 132.19745,18.4737243 C132.173079,18.470678 132.148707,18.4798176 132.124335,18.4737243 C131.856247,18.4280272 131.585112,18.5224676 131.405371,18.7265805 C131.22563,18.9306935 131.167748,19.2140139 131.246955,19.4729627 C132.118243,22.1812641 134.342157,24.2498096 137.096156,25.0053313 C134.902706,26.3092155 132.358912,27.0769231 129.614054,27.0769231 C129.019994,27.0769231 128.450307,27.0464589 127.883665,26.9794364 C127.51809,26.9306931 127.167747,27.1439456 127.045889,27.4912414 C126.920984,27.8385381 127.058075,28.2254377 127.37186,28.4173648 C130.89052,30.6747904 135.067215,32 139.557694,32 C146.835683,32 152.544747,28.9596348 156.374145,24.6153846 C160.203543,20.2711352 162.198974,14.6290941 162.198974,9.35872049 C162.198974,9.13632921 162.180695,8.92003046 162.174602,8.70068545 C163.603391,7.60700666 164.879857,6.32444783 165.879095,4.82559025 C166.077115,4.5361765 166.05579,4.14927686 165.827306,3.88118851 C165.601868,3.61310016 165.22106,3.53084559 164.904229,3.68012186 C164.502096,3.8598631 164.032942,3.87814147 163.61253,4.02132521 C164.166986,3.2810356 164.642234,2.48286387 164.9286,1.58415842 C165.026087,1.2764663 164.919461,0.938309216 164.666605,0.737243345 C164.413749,0.539222958 164.06036,0.51485129 163.783132,0.682406702 C162.45183,1.47143965 160.977344,2.0258947 159.420603,2.36405179 C157.90956,0.95049505 155.920223,0 153.693261,0 Z M153.693261,1.55978675 C155.682599,1.55978675 157.48001,2.40974886 158.738197,3.75323686 C158.927078,3.94821021 159.204305,4.03046478 159.469347,3.97258187 C160.486864,3.771516 161.452591,3.47600894 162.393947,3.09520183 C161.851678,3.82635187 161.181457,4.45087566 160.39547,4.92307692 C160.039035,5.09672486 159.871479,5.50799695 160.002477,5.88271154 C160.130428,6.25437909 160.520375,6.47067784 160.907275,6.385377 C161.687169,6.29093659 162.381761,5.97410491 163.125097,5.7760853 C162.457922,6.49809577 161.726772,7.15003828 160.931647,7.72581874 C160.715348,7.88423458 160.596537,8.14013709 160.614815,8.40822544 C160.627001,8.72505712 160.639187,9.03884254 160.639187,9.35872049 C160.639187,14.2330541 158.768662,19.5247523 155.204305,23.5674029 C151.639949,27.6100535 146.406133,30.4402133 139.557694,30.4402133 C136.44726,30.4402133 133.510474,29.751714 130.857009,28.5392232 C134.147184,28.2863669 137.181456,27.1226201 139.630809,25.2003046 C139.886712,24.9961917 139.987245,24.6549884 139.883665,24.34425 C139.780085,24.0335108 139.493719,23.8202591 139.167747,23.8111196 C136.596536,23.7654225 134.44269,22.269612 133.294175,20.1553694 C133.336826,20.1553694 133.373384,20.1553694 133.416034,20.1553694 C134.186788,20.1553694 134.948403,20.0578827 135.658227,19.8629094 C135.999431,19.7623764 136.234008,19.4455447 136.221822,19.0891093 C136.209636,18.7326731 135.956781,18.4280272 135.609484,18.351866 C132.83416,17.7913176 130.753429,15.5308458 130.272089,12.7220107 C131.058075,12.9931453 131.86234,13.2063978 132.733627,13.2338157 C133.090063,13.2551411 133.412988,13.0327498 133.52266,12.6945927 C133.632333,12.3564356 133.498288,11.9847681 133.196689,11.7958873 C131.344442,10.5559785 130.125859,8.44478294 130.125859,6.04417365 C130.125859,5.15460777 130.357389,4.33815689 130.662035,3.55826352 C134.561502,7.8385375 140.020756,10.6808839 146.186788,10.9916222 C146.430504,11.0038081 146.668129,10.9032751 146.826544,10.7174414 C146.98496,10.5285605 147.045889,10.2787513 146.991053,10.0411272 C146.872241,9.53541547 146.796079,8.99923878 146.796079,8.45696877 C146.796079,4.63671021 149.873003,1.55978675 153.693261,1.55978675 Z" id="twitter-logo-icon"></path>
                </g>
            </g>
        </g>
    </g>
</svg>